<svg width="289" height="62" viewBox="0 0 289 62" fill="none" xmlns="http://www.w3.org/2000/svg">
<path d="M47.4619 0.299473L47.1625 2.75878L46.8539 5.38144L46.5544 8.0404L46.1914 11.5796L45.1569 20.228H38.7954L37.171 5.92594L36.454 0.0181499L46.9356 0C47.0808 0.0635246 47.4075 0.245023 47.4619 0.299473Z" fill="#C22235"/>
<path d="M31.5263 14.0752C31.5263 9.61944 29.8021 5.60831 27.0433 2.76786H0C2.75878 5.60831 4.48302 9.61944 4.48302 14.0752C4.48302 18.531 2.75878 22.5422 0 25.3826C2.75878 28.2231 4.48302 32.2342 4.48302 36.69C4.48302 41.1458 2.75878 45.1569 0 47.9974H27.0433C29.8021 45.1569 31.5263 41.1458 31.5263 36.69C31.5263 32.2342 29.8021 28.2231 27.0433 25.3826C29.8021 22.5422 31.5263 18.531 31.5263 14.0752Z" fill="#C22235"/>
<path d="M91.185 42.5615L91.1669 47.5345H53.4333L53.4514 30.3738L53.4968 19.3206L53.5058 8.04947L53.4968 4.93677L53.4605 2.54098H90.459V7.46868L84.2517 7.4233L64.7588 7.34163V21.5802L69.8226 21.6256L77.1188 21.6528L79.5419 21.6437L86.6475 21.553L86.6385 26.5079H64.7588V42.5615H91.185Z" fill="#C22235"/>
<path d="M135.09 47.5164H122.484L119.49 43.6414L113.691 36.1818L112.665 37.3434L105.405 46.5363L104.634 47.5345L95.3413 47.5073L109.407 31.4991L104.153 25.0559L96.0945 15.0553L108.582 15.0372L112.965 20.7907L115.869 24.7111L116.686 25.8091L122.693 18.1227L125.162 15.0372H132.676L130.97 17.0246L126.786 22.2064L124.544 25.5187C123.474 27.0978 122.394 28.5951 120.915 29.9655L126.096 36.3542L131.832 43.3873L134.345 46.5635L135.08 47.5255L135.09 47.5164Z" fill="#C22235"/>
<path d="M264.997 14.9646L264.952 9.91891L264.934 7.45053L275.778 4.6373L275.76 9.15662V15.0281L286.469 15.0463L286.441 18.6944V19.8197L275.778 19.8469V37.4704C275.778 39.0948 276.123 40.8009 277.103 41.9444C279.345 44.5398 284.291 43.9499 286.696 41.1639L287.857 43.9046L288.338 45.1115C287.839 45.892 287.213 46.255 286.587 46.5998C285.017 47.471 283.456 47.9701 281.704 48.3059C279.2 48.7597 276.813 48.7415 274.281 48.2333L271.858 47.5527C267.729 46.0644 264.988 42.3709 264.97 37.9242L264.943 19.8287L259.117 19.8106V15.0372" fill="#C22235"/>
<path d="M252.628 24.4025C251.603 23.5858 250.214 23.1955 248.49 23.1955C245.904 23.1955 244.297 23.2591 242.128 24.9561C241.629 25.3463 240.177 26.2901 240.177 29.5026V47.5527H229.877V15.6452H240.177V19.9376C241.176 18.5855 242.528 17.4693 244.216 16.6071C246.312 15.5544 248.69 15.01 251.267 15.01C252.156 15.01 253.018 15.0553 253.826 15.1642" fill="#C22235"/>
<path d="M151.252 58.9599V42.3074C152.35 43.7866 153.775 44.9663 155.517 45.8194C157.632 46.863 160.1 47.3803 162.859 47.3803C166.226 47.3803 169.202 46.7178 171.698 45.4019C174.212 44.077 176.181 42.144 177.542 39.6575C178.903 37.171 179.593 34.2398 179.593 30.9274C179.593 27.615 178.822 24.8381 177.315 22.3153C175.8 19.7924 173.685 17.7869 171.026 16.3621C168.376 14.9464 165.327 14.2204 161.96 14.2204C157.287 14.2204 153.693 15.7813 151.252 18.8668V14.8557H140.943V62L151.252 58.9508V58.9599ZM164.075 18.5764C166.816 19.3115 168.603 20.9268 169.547 23.5041C170.5 26.0905 170.446 29.3756 169.411 33.2597C168.34 37.2617 166.761 40.1475 164.737 41.8355C162.714 43.5143 160.4 43.9772 157.668 43.2421C154.882 42.498 153.031 40.8554 152.014 38.2237C150.989 35.5919 150.998 32.2886 152.032 28.4046C153.04 24.6475 154.655 21.8525 156.833 20.101C159.011 18.3495 161.38 17.8504 164.075 18.5673H164.084L164.075 18.5764Z" fill="#C22235"/>
<path d="M224.559 31.5989C224.559 25.9816 222.871 21.6347 219.541 18.6762C216.22 15.7359 211.364 14.2386 205.085 14.2386C201.028 14.2386 197.462 14.9374 194.467 16.3167C191.463 17.7052 189.122 19.7289 187.506 22.3244C185.891 24.9198 185.065 28.0234 185.065 31.5445C185.065 35.0656 185.882 38.0875 187.506 40.6376C189.122 43.1876 191.463 45.1841 194.476 46.5454C197.453 47.8975 201.028 48.5872 205.085 48.5872C210.176 48.5872 214.468 47.589 217.835 45.6107C221.238 43.6142 223.362 40.7011 224.142 36.9622L224.233 36.5085H216.092L216.038 36.817C215.566 39.3489 214.541 41.2638 212.989 42.5161C211.428 43.7775 209.159 44.4128 206.219 44.4128C199.168 44.4128 195.737 40.3563 195.737 32.0073L224.55 31.9892V31.608L224.559 31.5989ZM196.073 27.7875C196.536 24.8381 197.543 22.524 199.059 20.9177C200.629 19.2479 202.77 18.3949 205.42 18.3949C207.934 18.3949 209.958 19.2207 211.437 20.8361C212.871 22.406 213.787 24.7383 214.169 27.7784H196.055L196.073 27.7875Z" fill="#C22235"/>
</svg>
