<svg width="282" height="68" viewBox="0 0 282 68" fill="none" xmlns="http://www.w3.org/2000/svg">
<path d="M53.5564 0.332584L52.8719 6.07114L52.5393 9.07033L52.1325 13.0688L50.967 22.825H43.7838L41.9516 6.68285L41.135 0.017817L52.964 0C53.1302 0.0742374 53.5014 0.277648 53.5564 0.332584Z" fill="#6C3FC5"/>
<path d="M35.5701 15.8838C35.5701 10.858 33.6281 6.328 30.5146 3.12243H0C3.11352 6.32948 5.05557 10.858 5.05557 15.8838C5.05557 20.9097 3.11352 25.4397 0 28.6453C3.11352 31.8523 5.05557 36.3808 5.05557 41.4067C5.05557 46.4325 3.11352 50.9625 0 54.1696H30.5205C33.634 50.9625 35.5761 46.434 35.5761 41.4082C35.5761 36.3823 33.634 31.8523 30.5205 28.6467C33.634 25.4397 35.5761 20.9112 35.5761 15.8853H35.5716L35.5701 15.8838Z" fill="#6C3FC5"/>
<path d="M256.973 18.1971L256.925 12.8045L256.909 10.1646L268.5 7.15352L268.484 11.9834V18.2624L279.93 18.2787L279.897 22.1747V23.3818L268.5 23.4145V42.25C268.5 43.9886 268.87 45.8075 269.917 47.0309C272.316 49.8 277.596 49.1719 280.172 46.1935L281.412 49.1229L281.927 50.4102C281.393 51.2416 280.724 51.6366 280.059 52.0033C278.381 52.9298 276.711 53.4688 274.843 53.8221C272.171 54.3047 269.611 54.2883 266.907 53.742L264.315 53.0174C259.904 51.4243 256.974 47.4793 256.958 42.7311L256.925 23.3967L250.695 23.3803V18.2773" fill="#6C3FC5"/>
<path d="M200.725 36.3749C200.725 30.4863 198.959 25.9311 195.469 22.831C191.993 19.7442 186.897 18.1763 180.314 18.1763C176.064 18.1763 172.324 18.9068 169.189 20.3544C166.038 21.8095 163.584 23.9297 161.896 26.6483C160.2 29.3654 159.342 32.6229 159.342 36.311C159.342 39.9991 160.2 43.1646 161.896 45.8401C163.591 48.5156 166.045 50.6002 169.196 52.0271C172.317 53.4465 176.064 54.1696 180.314 54.1696C185.648 54.1696 190.147 53.1198 193.681 51.0471C197.249 48.9536 199.477 45.904 200.294 41.9872L200.392 41.5121H191.856L191.801 41.8313C191.304 44.4846 190.232 46.4919 188.608 47.8044C186.976 49.1244 184.591 49.791 181.512 49.791C174.119 49.791 170.529 45.5417 170.529 36.7936L200.725 36.7728V36.3749ZM170.869 32.3883C171.359 29.2956 172.409 26.8754 173.999 25.1873C175.646 23.4353 177.886 22.5474 180.667 22.5474C183.298 22.5474 185.42 23.413 186.974 25.1086C188.478 26.7552 189.442 29.202 189.841 32.3883H170.862H170.869Z" fill="#6C3FC5"/>
<path d="M242.44 21.2022C239.625 18.7568 235.751 17.5185 230.904 17.5185C227.986 17.5185 225.312 18.1228 222.954 19.3166C221.054 20.2817 219.529 21.5348 218.409 23.0596V18.2342H206.799V54.1711H218.409V33.8374C218.409 30.228 219.265 27.3179 220.944 25.211C222.631 23.0967 224.864 22.0648 227.774 22.0648C232.702 22.0648 235.097 24.9081 235.097 30.7581V54.1711H246.707V31.4069C246.707 27.0967 245.277 23.6713 242.442 21.2111V21.2037L242.44 21.2022Z" fill="#6C3FC5"/>
<path d="M157.98 20.4034L157.974 13.5884C153.223 13.7072 148.294 15.7458 146.663 20.2965C143.574 18.7865 140.288 18.1807 136.867 18.1971C131.002 18.2268 124.29 19.3166 120.083 23.5496C118.288 25.358 117.337 27.6119 116.618 30.0469C115.904 32.4715 116.701 34.945 118.41 36.8425C119.463 38.0096 120.796 38.8648 122.274 39.4913C122.665 39.6576 123.172 40.4921 122.795 40.7252C121.392 41.4482 120.138 42.0718 119.124 43.1973C116.713 45.8683 116.948 49.8371 119.801 52.0627C120.706 52.768 121.699 53.2371 122.826 53.6618C119.754 54.7857 116.26 56.0032 115.678 59.3127C115.151 62.3134 117.735 64.6801 120.395 65.8694C123.236 67.1388 126.245 67.7669 129.39 67.9866L137.99 68C140.707 67.8396 143.296 67.3823 145.865 66.5256C147.872 65.856 149.675 64.8345 151.324 63.4804C153.418 61.7611 154.234 59.3795 154.286 56.7916C154.337 54.2334 153.508 51.8148 151.495 50.1756C149.234 48.336 145.795 47.0843 142.87 47.065L129.745 46.9819L127.789 46.7458C126.82 46.6285 126.051 46.0213 125.749 45.2447C125.427 44.4118 125.675 43.4393 126.241 42.7652C127.51 41.2537 129.4 41.2998 131.247 41.2998L136.958 41.3027C139.82 41.1305 142.555 40.6331 145.214 39.6294C148.81 38.2709 152.455 35.4216 152.827 31.4826C153.014 29.4945 153.039 27.3981 152.243 25.5228L151.182 23.8762C150.669 23.0804 149.823 22.4034 149.018 21.7293C150.362 20.6157 152.023 20.0382 153.808 19.8882C155.248 19.8273 156.611 20.053 157.98 20.4034ZM129.231 54.9505L141.554 54.9298C142.711 54.9283 143.93 55.1688 144.873 55.7672C145.737 56.315 146.386 57.442 146.429 58.4456C146.516 60.4798 145.009 62.6193 143.103 63.1122L141.453 63.5398C139.476 64.0506 137.538 64.153 135.581 64.1441L133.434 64.1337C130.41 64.1189 126.08 63.6601 124.48 61.1612C123.426 59.5161 123.764 57.1628 125.348 55.978C126.458 55.1465 127.849 54.9535 129.231 54.9505ZM141.421 30.1582C141.207 32.2873 140.68 34.265 139.318 36.0527C136.861 38.02 132.591 37.9041 130.125 36.2427C128.57 35.196 127.933 33.3757 127.926 31.5851L127.919 29.7811C127.91 28.0365 128.429 26.3335 129.446 24.9067C130.924 22.8354 133.335 21.9891 135.819 22.0485C138.937 22.1213 140.181 23.8302 141.029 26.7047C141.367 27.8524 141.54 28.9689 141.421 30.1582Z" fill="#6C3FC5"/>
<path d="M107.058 45.4066L88.4212 6.50617L77.2723 6.51508L66.0847 30.6957L59.0826 45.6516L55.1762 54.1621L62.0269 54.1592L68.095 40.9627H92.0277L94.7418 46.9745L98.0766 54.1696L111.193 54.1518L107.058 45.4066ZM70.3014 35.9012L76.1928 23.1621L80.1764 14.4095L81.9967 18.5742L89.8095 35.9027H70.3014V35.9012Z" fill="#6C3FC5"/>
</svg>
