<svg width="272" height="63" viewBox="0 0 272 63" fill="none" xmlns="http://www.w3.org/2000/svg">
<path d="M61.2968 0.386768L60.91 3.56295L60.5115 6.95009L60.1247 10.3841L59.6559 14.955L58.3198 26.1244H50.104L48.006 7.65331L47.0801 0.0234405L60.617 0C60.8045 0.0820416 61.2265 0.316446 61.2968 0.386768Z" fill="#00A3B4"/>
<path d="M40.7161 18.1781C40.7161 12.4235 38.4892 7.24311 34.9263 3.57468H0C3.56295 7.24311 5.78979 12.4235 5.78979 18.1781C5.78979 23.9327 3.56295 29.1131 0 32.7815C3.56295 36.4499 5.78979 41.6303 5.78979 47.3849C5.78979 53.1395 3.56295 58.3199 0 61.9883H34.9263C38.4892 58.3199 40.7161 53.1395 40.7161 47.3849C40.7161 41.6303 38.4892 36.4499 34.9263 32.7815C38.4892 29.1131 40.7161 23.9327 40.7161 18.1781Z" fill="#00A3B4"/>
<path d="M166.017 40.0363C166.017 32.7698 163.837 27.1441 159.524 23.3115C155.235 19.5025 148.941 17.5686 140.819 17.5686C135.568 17.5686 130.962 18.4711 127.083 20.2526C123.191 22.0458 120.168 24.6711 118.081 28.0231C115.984 31.3751 114.929 35.3951 114.929 39.9543C114.929 44.5134 115.984 48.4163 118.081 51.7214C120.179 55.0265 123.203 57.5932 127.094 59.363C130.95 61.1093 135.568 62.0117 140.819 62.0117C147.405 62.0117 152.961 60.7108 157.321 58.1558C161.728 55.5773 164.47 51.8034 165.49 46.9747L165.607 46.3887H155.07L155 46.7872C154.391 50.0571 153.066 52.5418 151.062 54.1592C149.046 55.7883 146.104 56.6087 142.307 56.6087C133.177 56.6087 128.747 51.358 128.747 40.5637L166.017 40.5403V40.0363ZM129.157 35.1138C129.766 31.293 131.056 28.3044 133.025 26.2299C135.052 24.0616 137.818 22.9717 141.252 22.9717C144.499 22.9717 147.124 24.0382 149.035 26.1361C150.886 28.1637 152.082 31.1875 152.574 35.1255H129.145L129.157 35.1138Z" fill="#00A3B4"/>
<path d="M266.67 21.4715C263.694 18.8813 259.591 17.5686 254.458 17.5686C251.364 17.5686 248.539 18.2132 246.043 19.4673C244.027 20.487 242.41 21.8114 241.226 23.4287V3.57468L228.931 7.4658V62H241.226V34.3754C241.226 30.5546 242.128 27.4722 243.91 25.2454C245.691 23.0068 248.059 21.9168 251.141 21.9168C256.357 21.9168 258.9 24.9289 258.9 31.1172V62H271.194V32.2658C271.194 27.7066 269.683 24.0851 266.682 21.4715H266.67Z" fill="#00A3B4"/>
<path d="M211.679 46.7637C211.128 49.8579 209.687 52.2957 207.401 53.9951C205.104 55.7062 202.209 56.5853 198.81 56.5853C194.251 56.5853 190.735 55.1437 188.391 52.3308C186.012 49.4828 184.816 45.2635 184.816 39.7785C184.816 34.2934 186.012 30.0741 188.391 27.2261C190.735 24.4015 194.239 22.9717 198.81 22.9717C202.326 22.9717 205.245 23.8272 207.495 25.5267C209.698 27.1792 211.093 29.6053 211.667 32.7112H222.192V32.6643C221.524 27.7535 219.028 23.9796 214.75 21.4011C210.53 18.8696 204.752 17.5804 197.591 17.5804C189.188 17.5804 182.589 19.5025 177.983 23.2764C173.354 27.0737 170.998 32.6291 170.998 39.8019C170.998 46.9747 173.342 52.5301 177.983 56.3274C182.589 60.1013 189.188 62.0234 197.591 62.0234C204.705 62.0234 210.46 60.7342 214.703 58.2027C219.004 55.6359 221.512 51.8503 222.169 46.9512L222.239 46.4004H211.738L211.667 46.7989L211.679 46.7637Z" fill="#00A3B4"/>
<path d="M100.173 45.0994L100.149 61.0038C100.196 61.3671 100.185 61.6601 100.126 61.9883H86.5539V11.5327H67.6609V3.57468H117.261V11.5327L100.138 11.521L100.161 34.2582V45.0994H100.173Z" fill="#00A3B4"/>
</svg>
