<svg width="914" height="158" viewBox="0 0 914 158" fill="none" xmlns="http://www.w3.org/2000/svg">
<path d="M110.044 39.4808C110.044 23.9319 104.035 9.91964 94.404 0H0C9.63057 9.91964 15.6402 23.9319 15.6402 39.4808C15.6402 55.0297 9.63057 69.0419 0 78.9616C9.63057 88.8812 15.6402 102.893 15.6402 118.442C15.6402 133.991 9.63057 148.004 0 157.923H94.4192C104.05 148.004 110.059 133.991 110.059 118.442C110.059 102.893 104.05 88.8812 94.4192 78.9616C104.05 69.0419 110.059 55.0297 110.059 39.4808H110.044Z" fill="#C22235"/>
<path d="M237.597 76.6458C243.928 74.4484 249.122 71.4057 253.072 67.564C257.789 62.9847 260.171 57.7292 260.171 51.9359C260.171 46.8495 258.143 42.2702 254.132 38.3209C250.183 34.4485 244.62 31.4212 237.582 29.2852C230.574 27.1799 222.43 26.1043 213.379 26.1043H158.827V132.443H217.021C232.618 132.443 244.85 129.892 253.348 124.852C262 119.735 266.395 112.343 266.395 102.892C266.395 89.0469 256.698 80.2263 237.566 76.6305L237.597 76.6458ZM233.648 116.63C230.175 119.857 225.104 121.486 218.558 121.486H186.395V82.8387H206.833C217.267 82.8387 225.334 84.529 230.805 87.879C236.214 91.1829 238.842 95.8544 238.842 102.17C238.842 108.486 237.09 113.434 233.648 116.646V116.63ZM226.487 66.9494C222.138 70.2071 215.838 71.8667 207.755 71.8667H186.395V37.1069H208.216C216.13 37.1069 222.307 38.4899 226.61 41.2406C230.851 43.9452 232.91 47.7408 232.91 52.858C232.91 59.0201 230.744 63.7684 226.487 66.9801V66.9494Z" fill="white"/>
<path d="M281.746 33.2807V132.458H305.964V26.1197L281.746 33.2807Z" fill="white"/>
<path d="M413.348 95.4397C413.348 82.6852 409.521 72.8196 401.961 66.1043C394.431 59.4197 383.398 56.0237 369.137 56.0237C359.933 56.0237 351.834 57.6065 345.042 60.7413C338.219 63.8915 332.902 68.4862 329.245 74.3717C325.572 80.2572 323.713 87.3106 323.713 95.3013C323.713 103.292 325.572 110.146 329.245 115.939C332.918 121.732 338.235 126.25 345.058 129.339C351.819 132.412 359.933 133.98 369.137 133.98C380.693 133.98 390.436 131.705 398.089 127.218C405.818 122.685 410.643 116.077 412.41 107.595L412.626 106.565H394.139L394.016 107.257C392.941 113.004 390.62 117.353 387.101 120.196C383.567 123.054 378.404 124.498 371.734 124.498C355.722 124.498 347.947 115.294 347.947 96.3463L413.348 96.3002V95.4397ZM348.684 86.8035C349.744 80.1035 352.019 74.8634 355.461 71.2061C359.026 67.4105 363.882 65.4896 369.906 65.4896C375.607 65.4896 380.202 67.3644 383.567 71.0371C386.825 74.6022 388.915 79.9038 389.775 86.8035H348.669H348.684Z" fill="white"/>
<path d="M502.122 63.6919C496.252 58.5901 488.169 56.0084 478.058 56.0084C471.972 56.0084 466.394 57.2685 461.477 59.7579C457.512 61.771 454.331 64.3834 451.995 67.5643V57.499H427.777V132.459H451.995V90.046C451.995 82.5163 453.778 76.4464 457.282 72.0514C460.801 67.6411 465.457 65.4898 471.527 65.4898C481.807 65.4898 486.801 71.4214 486.801 83.6227V132.459H511.02V84.975C511.02 75.9853 508.038 68.8398 502.122 63.7072V63.6919Z" fill="white"/>
<path d="M590.22 33.2807V67.9329C587.639 64.46 584.289 61.694 580.201 59.6809C575.238 57.2376 569.429 56.0083 562.944 56.0083C555.03 56.0083 548.038 57.5757 542.168 60.6644C536.267 63.7685 531.642 68.3171 528.43 74.1565C525.234 79.9959 523.605 86.8956 523.605 94.6713C523.605 102.447 525.418 108.978 528.968 114.909C532.533 120.841 537.497 125.559 543.751 128.893C549.975 132.228 557.151 133.934 565.065 133.934C576.037 133.934 584.489 130.261 590.22 123.008V132.428H614.439V26.1197L590.22 33.2807ZM560.086 123.715C553.647 121.994 549.437 118.198 547.224 112.128C544.996 106.043 545.103 98.3286 547.547 89.2007C550.067 79.7962 553.77 73.004 558.534 69.0547C563.282 65.1054 568.722 64.0298 575.161 65.7508C581.707 67.5027 586.056 71.3597 588.453 77.5372C590.866 83.7301 590.85 91.4903 588.407 100.603C586.041 109.439 582.245 116 577.128 120.119C572.011 124.237 566.448 125.405 560.117 123.715H560.086Z" fill="white"/>
<path d="M689.106 57.5141V99.9267C689.106 107.472 687.324 113.526 683.82 117.937C680.362 122.285 675.568 124.498 669.575 124.498C659.294 124.498 654.3 118.567 654.3 106.365V57.5295H630.082V105.028C630.082 114.018 633.063 121.179 638.964 126.296C644.819 131.398 652.917 133.98 663.029 133.98C669.114 133.98 674.692 132.72 679.609 130.23C683.574 128.232 686.74 125.605 689.091 122.424V132.489H713.309V57.5295H689.091L689.106 57.5141Z" fill="white"/>
<path d="M913.785 131.429C912.279 124.345 911.526 116.216 911.526 107.242V83.6227C911.526 74.6945 908.084 67.7641 901.276 63.0465C894.561 58.3749 884.726 56.0084 872.033 56.0084C860.462 56.0084 851.15 58.1905 844.342 62.4933C837.458 66.8574 833.385 73.2654 832.233 81.5635L832.095 82.5316H850.55L850.658 81.8094C851.426 76.4617 853.455 72.3741 856.682 69.6235C859.909 66.8882 864.35 65.4898 869.897 65.4898C875.445 65.4898 879.886 66.9189 882.851 69.7464C885.802 72.5585 887.308 76.6769 887.308 81.9784V86.0506H868.238C856.067 86.0506 846.586 88.1559 840.101 92.3203C833.478 96.5616 830.128 102.678 830.128 110.53C830.128 117.952 832.986 123.807 838.61 127.895C844.158 131.921 852.533 133.965 863.52 133.965C868.975 133.965 874.123 133.043 878.81 131.214C882.944 129.6 886.463 127.08 889.29 123.684C889.72 126.112 890.335 128.847 891.134 131.829L891.303 132.459H914L913.785 131.429ZM887.308 95.5474V107.257C887.308 112.574 885.633 116.861 882.329 120.011C879.01 123.177 874.277 124.791 868.238 124.791C863.627 124.791 860.124 123.592 857.819 121.241C855.514 118.874 854.331 115.232 854.331 110.407C854.331 105.582 856.005 102.094 859.463 99.512C862.951 96.8996 868.053 95.5781 874.615 95.5781H887.292L887.308 95.5474Z" fill="white"/>
<path d="M799.087 107.241C798.119 112.666 795.598 116.938 791.588 119.934C787.546 122.946 782.475 124.483 776.513 124.483C768.507 124.483 762.344 121.963 758.226 117.015C754.062 112.02 751.957 104.614 751.957 94.994C751.957 85.3744 754.062 77.9675 758.226 72.9733C762.344 68.0098 768.491 65.505 776.513 65.505C782.675 65.505 787.807 67.011 791.741 69.9768C795.598 72.8811 798.057 77.1224 799.056 82.5776H817.527V82.4854C816.359 73.88 811.979 67.2415 804.48 62.7236C797.074 58.2826 786.947 56.0237 774.377 56.0237C759.64 56.0237 748.069 59.389 739.986 66.0121C731.857 72.6813 727.738 82.4239 727.738 94.994C727.738 107.564 731.857 117.322 739.986 123.976C748.069 130.599 759.64 133.964 774.377 133.964C786.855 133.964 796.951 131.705 804.404 127.264C811.949 122.762 816.359 116.123 817.512 107.518L817.635 106.55H799.209L799.087 107.257V107.241Z" fill="white"/>
</svg>
